<svg xmlns="http://www.w3.org/2000/svg" viewBox="0 0 254.78 72.76"><title>GYKN</title><path d="M234.94,70c-2,1.06-4,2.26-6.06,3.13A34.1,34.1,0,0,1,217.21,76c-7,.31-12.88-1.49-17.43-7.15a37.3,37.3,0,0,1-6.6-11.4,63.8,63.8,0,0,0-2.75-6.09,4.9,4.9,0,0,1-.21-.61c-1.3-4.9-2.56-9.81-3.91-14.7a75.81,75.81,0,0,0-3-9.65,84.23,84.23,0,0,0-5.38-10c-1-1.74-5-2.77-7-2a21.21,21.21,0,0,0-4.07,1.79,10.87,10.87,0,0,0-4.37,6.56c-1,3.87-1.31,8-2.31,11.84-1.53,6-.82,12-1,18-.1,3.24-.13,6.48-.28,9.71a2,2,0,0,0,1.67,2.36c2.73.61,5.45,1.24,8.2,1.78,3.38.67,6.78,1.24,10.17,1.87a1.55,1.55,0,0,1,1,.69,5.32,5.32,0,0,1-1.54.25c-5.11-.74-10.21-1.55-15.31-2.31a20.48,20.48,0,0,0-4.65-.45,9.63,9.63,0,0,1-6.06-1.62,9.86,9.86,0,0,0-2.54-1c-2.9-.78-5.83-1.47-8.73-2.26-3.57-1-7.11-2.09-10.7-3-2.09-.55-2.58-.07-2.62,2.14,0,.86-.07,1.72-.13,2.58,0,.14-.15.27-.44.76-.42-.61-.93-1-1-1.52a32.24,32.24,0,0,1-.36-3.69,3.16,3.16,0,0,0-2.09-3,16.76,16.76,0,0,1-7.16-5.34c-1.15-1.63-.9-3.25-.24-5a68,68,0,0,1,7.62-13.71c1.5-2.24,1.39-4.35,1.35-6.7-.1-5.07-.08-10.14-.11-15.21a1.66,1.66,0,0,1,0-.64c.2-.4.47-.76.71-1.14.29.39.81.76.84,1.17.15,2,.2,4,.23,6,0,2.48,0,5,.06,7.44a6.79,6.79,0,0,0,.54,1.75,5.49,5.49,0,0,0,1.65-.86,28.08,28.08,0,0,0,2.25-2.93c2.17-3,4.3-6.11,6.49-9.14a7.51,7.51,0,0,1,1.43-1.17l.44.34a5.11,5.11,0,0,1-.41,1.77c-2.35,3.38-4.77,6.71-7.16,10.06-1.37,1.9-2.8,3.76-4.1,5.71-1.63,2.43-1,5.22-1,7.88,0,4.85.16,9.7.26,14.55,0,.65,0,1.3.09,1.94.41,3.52.61,3.79,4.05,4.76,5.8,1.64,11.6,3.24,17.4,4.85,1.56.43,2.31-.23,2-2s-.92-3.76-1.28-5.66c-.62-3.21-1.21-6.44-1.71-9.67-.62-4-1.2-8-1.66-12a7.77,7.77,0,0,1,.62-2.57,9.31,9.31,0,0,1,1.09,2.42c1,6.71,1.76,13.45,2.81,20.14a59.25,59.25,0,0,0,2.1,7.92,3.67,3.67,0,0,0,1.33,1.76,1.79,1.79,0,0,0,2.88-1.29c.24-3.43.58-6.86.57-10.29,0-6.33-.13-12.65.74-18.94a52.94,52.94,0,0,1,.88-5.91c1-4,2.49-8,5.77-10.72,4.5-3.7,10.24-4.18,14.71,1.11,2.65,3.12,3.75,6.93,5.16,10.61,1.08,2.8,1.9,5.7,2.76,8.58,1.5,5,2.9,10,4.4,15a52.61,52.61,0,0,0,2,5.62c2.46,5.77,5.16,11.49,10.5,15.16a17.17,17.17,0,0,0,14.31,2.84c2.45-.61,4.91-1.18,7.3-2,1.93-.63,3.74-1.58,5.64-2.31a24.23,24.23,0,0,1,2.69-.73ZM125.68,44.82h-.1c0-2.54,0-5.07,0-7.6a4.39,4.39,0,0,0-.27-1.74c-.31-.75-.92-1-1.47-.21a20.36,20.36,0,0,0-2,3.09c-1.38,2.9-2.7,5.83-3.9,8.8a2.82,2.82,0,0,0,.18,2.24,12.42,12.42,0,0,0,5.35,4.5c1.6.74,2.19.46,2.22-1.32C125.71,50,125.68,47.41,125.68,44.82Z" transform="translate(-8.7 -8.06)"/><path d="M220.11,14.28a12.76,12.76,0,0,1,.36,2.17c0,5.18-.15,10.36.06,15.53s.69,10.31,1.27,15.44a27.07,27.07,0,0,0,1.56,5.41,2.17,2.17,0,0,0,2.71,1.5,5.69,5.69,0,0,0,3-2.29c1.48-2.63,1.32-5.59.91-8.52a12.21,12.21,0,0,1-.19-2.09,1.08,1.08,0,0,1,.62-.74c.14-.07.55.25.69.48a2.61,2.61,0,0,1,.24.93c.53,2.89,1,5.78,1.6,8.65.2,1,.33,2.18,1.75,2.42A3.3,3.3,0,0,0,238,51.71c2.54-3,1.88-6.54,1.82-10-.09-5.06-.05-10.12,0-15.18a11.89,11.89,0,0,1,.2-2.74c.34-1.49.88-2.93,1.28-4.4a24.46,24.46,0,0,0,.59-2.67,2.22,2.22,0,0,1,2.06-2.05c-.33,1.58-.6,3-.91,4.35a64.38,64.38,0,0,0-1.72,7.68,124.58,124.58,0,0,0-.68,13.66,92.48,92.48,0,0,0,1.09,10.72c.22,1.7,1.6,2.2,3,1.17,1.1-.86,2.14-1.81,3.24-2.68,2.05-1.62,1.94-3.94,2.05-6.19a4.08,4.08,0,0,1,4-4.22,3.22,3.22,0,0,1,3.43,2.18,5.66,5.66,0,0,1-.21,4.1c-.72,1.24-2.33,2-3.51,2.94-.5.41-1.26,1-1.24,1.43a2.63,2.63,0,0,0,1.11,1.74c2.31,1.56,5.13.48,7.43-1.25.73-.56,1.44-1.14,2.16-1.71l.41.38a5.73,5.73,0,0,1-.68,1.48c-2.13,2.37-4.73,3.76-8,3.23a5.66,5.66,0,0,1-2.7-1.26c-1.79-1.61-3.12-1.88-4.95-.31A39.36,39.36,0,0,0,243,56.51a2.52,2.52,0,0,0-.39,1.8c.56,3.78,1,7.58,1.88,11.29A87.2,87.2,0,0,0,247.26,78c.1.31.37.63.32.89a17.81,17.81,0,0,1-.6,2,5.68,5.68,0,0,1-1.58-1.06,4.31,4.31,0,0,1-.76-2.08c-.33-3.77-2.47-6.78-4-10.07a42.44,42.44,0,0,1-2.24-7.21c-.15-.6.34-1.4.63-2.07s.76-1,.88-1.52a15.39,15.39,0,0,0,.16-2.55,9.14,9.14,0,0,0-2.51,0c-1.78.51-3.45.84-5.05-.49-1.29-1.06-2.39-.52-3.36.57-2.42,2.7-5,2.26-6.75-.83a20.36,20.36,0,0,1-1.74-5.43c-2.63-10.73-1.56-21.61-1.53-32.44a4.44,4.44,0,0,1,.13-1,1.3,1.3,0,0,1,.28-.36Zm36.28,28.88a3.69,3.69,0,0,0-.64-1.47,2.71,2.71,0,0,0-3.67.1c-1.09,1-1.65,3.73-.93,4.58a1.58,1.58,0,0,0,.67.43C253.45,47.35,256.35,45.3,256.39,43.16Z" transform="translate(-8.7 -8.06)"/><path d="M78.09,78.76c2.11-.34,4.21-.8,6.33-1a16.12,16.12,0,0,0,11.41-5.68,36.23,36.23,0,0,0,7.47-15.46c1.67-7.72,1.43-15.38,1.53-23.1a41.3,41.3,0,0,0-.36-6.77,60.48,60.48,0,0,0-1.71-6.87c-.09-.32-.57-.52-.86-.78-.29.35-.76.66-.84,1.05-.35,1.69-.56,3.41-.87,5.1-.79,4.27-1.49,8.57-2.47,12.8-.7,3-1.81,5.92-2.73,8.87a7,7,0,0,0-.26,1.1c-.58,4.58-2.64,8.59-5.07,12.37-1.12,1.73-2.53,3.45-5.1,3.47-3.07,0-4.71-1.92-6.06-4.15-1.7-2.82-2.31-6-3-9.26-2.07-9.12-1.95-18.36-2-27.61,0-.71.14-1.42.21-2.12l.72-.11A9.07,9.07,0,0,1,75,22.79c.09,4.37-.12,8.75.19,13.1.29,4.17,1.06,8.31,1.7,12.45.36,2.33.82,4.66,1.36,7A10.4,10.4,0,0,0,81.49,61a4.21,4.21,0,0,0,6.85-1.49c1.7-3.62,3.34-7.27,4.88-11a22.09,22.09,0,0,0,.85-3.76c.85-3.83,1.73-7.64,2.55-11.47C97.86,27.5,99,21.71,100.34,16c.17-.75,1.18-1.32,1.81-2,.68.68,1.69,1.25,2,2.07a29.18,29.18,0,0,1,1.19,5.35,103.91,103.91,0,0,1,.9,26.71,85.84,85.84,0,0,1-2.13,12.68,28.38,28.38,0,0,1-3.86,8,35.83,35.83,0,0,1-5.63,6.31,11,11,0,0,1-4.42,2.55c-3.25.88-6.6,1.38-9.93,1.94a7.13,7.13,0,0,1-2.16-.3Z" transform="translate(-8.7 -8.06)"/><path d="M61.05,25.17c.37-1.05.65-1.76.87-2.49a4.71,4.71,0,0,0,.43-2.14c-1-3.77-2.66-6.66-7.66-7.29-1.59-.21-3.19-.94-4.75-.84a37.08,37.08,0,0,0-11.64,2.2c-6.43,2.58-11.46,7-16,12A74.57,74.57,0,0,0,17,34a44.43,44.43,0,0,0-2.76,4.23,39.64,39.64,0,0,0-1.54,3.88,33.79,33.79,0,0,0-2.11,14.74A8.89,8.89,0,0,0,17,64.8c3.94,1.14,7.83.46,11.7-.25A50.48,50.48,0,0,0,51,54.17c1.72-1.36,3.37-2.83,5-4.3a2.25,2.25,0,0,0,.07-3.16c-2-2.69-4.93-3.25-8-3.33-.88,0-1.76,0-2.64,0l-.13-.67a10,10,0,0,1,2.7-.83,11.72,11.72,0,0,1,7.77,2.45,11.52,11.52,0,0,1,3.91,6.08,33.54,33.54,0,0,1,.83,9.91,7.73,7.73,0,0,1-.56,1.9l-.68-.12c0-1.21,0-2.42,0-3.62a42.92,42.92,0,0,0-.3-4.68c-.28-1.94-1.9-2.47-3.45-1.32-3.53,2.61-7,5.37-10.71,7.67-2.67,1.64-5.74,2.62-8.63,3.9A34.53,34.53,0,0,1,21,66.67a17.86,17.86,0,0,1-6.53-1.32c-1.41-.62-2.51-2.2-3.49-3.54C7.52,57,8.74,51.58,9.84,46.56c.89-4.1,3-8,5-11.77a52.11,52.11,0,0,1,6.58-9.48A46.48,46.48,0,0,1,37.62,13.56a30.61,30.61,0,0,1,15.79-2.12A13.24,13.24,0,0,1,62.1,15.6c2,2.19,2,7.15-.05,9.3C62,25,61.75,25,61.05,25.17Z" transform="translate(-8.7 -8.06)"/><path d="M231.4,33.82c-.28.19-.7.7-1.17.76-1.22.15-1.36-.76-1.33-1.69,0-.73-.08-1.64,1-1.61C231.34,31.32,231.21,32.47,231.4,33.82Z" transform="translate(-8.7 -8.06)"/><path d="M186.61,70.13h-3.12v-.34h3.12Z" transform="translate(-8.7 -8.06)"/></svg>